# Blender v2.90.1 OBJ File: ''
# www.blender.org
mtllib chair.mtl
o Cube
v 0.707839 0.142679 -0.729566
v 0.707849 -0.144792 -0.729139
v 0.729348 0.144812 0.707630
v 0.729358 -0.142659 0.708056
v -0.729358 0.142659 -0.708056
v -0.729348 -0.144812 -0.707630
v -0.707849 0.144792 0.729139
v -0.707839 -0.142679 0.729566
v -0.540863 -0.144810 -0.710451
v -0.519364 0.144795 0.726318
v -0.519354 -0.142677 0.726745
v -0.540874 0.142661 -0.710877
v 0.552654 -0.142661 0.710701
v 0.531134 0.142677 -0.726921
v 0.531144 -0.144795 -0.726495
v 0.552644 0.144810 0.710274
v -0.726527 -0.144533 -0.519145
v 0.710660 0.142959 -0.541081
v -0.726538 0.142939 -0.519572
v 0.710670 -0.144512 -0.540655
v -0.538042 -0.144530 -0.521966
v -0.538053 0.142941 -0.522393
v 0.533955 0.142956 -0.538437
v 0.533965 -0.144515 -0.538010
v -0.710550 -0.142948 0.548421
v 0.726637 0.144544 0.526485
v -0.522065 -0.142945 0.545600
v -0.522075 0.144526 0.545173
v 0.549932 0.144541 0.529130
v 0.549943 -0.142930 0.529556
v -0.710560 0.144523 0.547994
v 0.726647 -0.142928 0.526911
v -0.677699 1.702549 -0.836114
v -0.680520 1.702269 -1.024599
v 0.579973 1.702287 -1.043464
v 0.756677 1.702290 -1.046108
v -0.492035 1.702272 -1.027419
v 0.759498 1.702569 -0.857624
v -0.489214 1.702552 -0.838935
v 0.582793 1.702567 -0.854979
v 0.552693 -1.219064 0.712298
v 0.729398 -1.219061 0.709653
v 0.549982 -1.219332 0.531153
v 0.726687 -1.219330 0.528508
v -0.710510 -1.219350 0.550018
v -0.707799 -1.219082 0.731163
v -0.519314 -1.219079 0.728342
v -0.522026 -1.219348 0.547197
v -0.540824 -1.221212 -0.708854
v -0.729309 -1.221215 -0.706033
v -0.726488 -1.220935 -0.517548
v -0.538003 -1.220932 -0.520369
v 0.710709 -1.220915 -0.539058
v 0.707888 -1.221194 -0.727542
v 0.531184 -1.221197 -0.724898
v 0.534004 -1.220917 -0.536413
vt 0.842213 0.718490
vt 0.875000 0.718490
vt 0.875000 0.750000
vt 0.842213 0.750000
vt 0.375000 0.967213
vt 0.625000 0.967213
vt 0.625000 1.000000
vt 0.375000 1.000000
vt 0.375000 0.217213
vt 0.625000 0.217213
vt 0.625000 0.250000
vt 0.375000 0.250000
vt 0.344262 0.750000
vt 0.344262 0.718490
vt 0.344262 0.718490
vt 0.344262 0.750000
vt 0.375000 0.718490
vt 0.625000 0.718490
vt 0.625000 0.750000
vt 0.375000 0.750000
vt 0.375000 0.469262
vt 0.625000 0.469262
vt 0.625000 0.500000
vt 0.375000 0.500000
vt 0.625000 0.282787
vt 0.375000 0.282787
vt 0.375000 1.000000
vt 0.375000 0.967213
vt 0.655738 0.718490
vt 0.655738 0.750000
vt 0.625000 0.780738
vt 0.375000 0.780738
vt 0.625000 0.469262
vt 0.625000 0.500000
vt 0.875000 0.532787
vt 0.842213 0.532787
vt 0.842213 0.532787
vt 0.875000 0.532787
vt 0.375000 0.282787
vt 0.375000 0.250000
vt 0.625000 0.532787
vt 0.375000 0.532787
vt 0.344262 0.532787
vt 0.344262 0.532787
vt 0.375000 0.532787
vt 0.375000 0.031510
vt 0.625000 0.031510
vt 0.375000 0.000000
vt 0.625000 0.000000
vt 0.125000 0.532787
vt 0.157787 0.532787
vt 0.157787 0.718490
vt 0.125000 0.718490
vt 0.655738 0.500000
vt 0.655738 0.532787
vt 0.625000 0.532787
vt 0.842213 0.500000
vt 0.875000 0.500000
vt 0.625000 0.250000
vt 0.625000 0.282787
vt 0.625000 0.217213
vt 0.375000 0.718490
vt 0.375000 0.750000
vt 0.375000 0.780738
vt 0.125000 0.718490
vt 0.157787 0.718490
vt 0.157787 0.750000
vt 0.125000 0.750000
vt 0.157787 0.750000
vt 0.375000 0.031510
vt 0.375000 0.000000
vt 0.125000 0.500000
vt 0.157787 0.500000
vt 0.157787 0.532787
vt 0.125000 0.532787
vt 0.157787 0.500000
vt 0.375000 0.217213
vt 0.344262 0.500000
vt 0.375000 0.500000
vt 0.344262 0.500000
vt 0.375000 0.469262
vt 0.655738 0.532787
vn -0.0000 1.0000 -0.0015
vn 0.0150 0.0015 0.9999
vn -0.9999 -0.0000 0.0150
vn 0.9999 0.0000 -0.0150
vn -0.0150 -0.0015 -0.9999
vn -0.0147 -0.1984 -0.9800
vn 0.0147 0.1984 0.9800
vn 0.0000 -1.0000 0.0015
vn -0.9993 0.0343 0.0149
vn 0.9993 -0.0343 -0.0149
g Cube_Cube_black
usemtl black
s off
f 28/1/1 31/2/1 7/3/1 10/4/1
f 11/5/2 10/6/2 7/7/2 8/8/2
f 17/9/3 19/10/3 5/11/3 6/12/3
f 13/13/3 30/14/3 43/15/3 41/16/3
f 32/17/4 26/18/4 3/19/4 4/20/4
f 15/21/5 14/22/5 1/23/5 2/24/5
f 6/12/5 5/11/5 12/25/5 9/26/5
f 11/5/2 8/8/2 46/27/2 47/28/2
f 26/18/1 29/29/1 16/30/1 3/19/1
f 4/20/2 3/19/2 16/31/2 13/32/2
f 1/23/6 14/22/6 35/33/6 36/34/6
f 19/35/7 22/36/7 39/37/7 33/38/7
f 6/12/5 9/26/5 49/39/5 50/40/5
f 2/24/4 1/23/4 18/41/4 20/42/4
f 20/42/2 24/43/2 56/44/2 53/45/2
f 25/46/3 31/47/3 19/10/3 17/9/3
f 8/48/3 7/49/3 31/47/3 25/46/3
f 17/50/8 21/51/8 27/52/8 25/53/8
f 20/42/4 18/41/4 26/18/4 32/17/4
f 24/43/8 20/42/8 32/17/8 30/14/8
f 22/36/1 19/35/1 31/2/1 28/1/1
f 36/34/1 35/54/1 40/55/1 38/56/1
f 37/57/1 34/58/1 33/38/1 39/37/1
f 12/25/6 5/11/6 34/59/6 37/60/6
f 5/11/9 19/10/9 33/61/9 34/59/9
f 18/41/10 1/23/10 36/34/10 38/56/10
f 43/15/8 44/62/8 42/63/8 41/16/8
f 30/14/5 32/17/5 44/62/5 43/15/5
f 4/20/2 13/32/2 41/64/2 42/63/2
f 32/17/4 4/20/4 42/63/4 44/62/4
f 45/65/8 48/66/8 47/67/8 46/68/8
f 25/53/5 27/52/5 48/66/5 45/65/5
f 27/52/4 11/69/4 47/67/4 48/66/4
f 8/48/3 25/46/3 45/70/3 46/71/3
f 50/72/8 49/73/8 52/74/8 51/75/8
f 9/76/4 21/51/4 52/74/4 49/73/4
f 17/9/3 6/12/3 50/40/3 51/77/3
f 21/51/2 17/50/2 51/75/2 52/74/2
f 55/78/8 54/79/8 53/45/8 56/44/8
f 24/43/3 15/80/3 55/78/3 56/44/3
f 2/24/4 20/42/4 53/45/4 54/79/4
f 15/21/5 2/24/5 54/79/5 55/81/5
g Cube_Cube_back
usemtl back
f 13/32/2 16/31/2 10/6/2 11/5/2
f 29/29/1 28/1/1 10/4/1 16/30/1
f 9/26/5 12/25/5 14/22/5 15/21/5
f 27/52/8 30/14/8 13/13/8 11/69/8
f 9/76/8 15/80/8 24/43/8 21/51/8
f 22/36/7 23/82/7 40/55/7 39/37/7
f 21/51/8 24/43/8 30/14/8 27/52/8
f 23/82/1 22/36/1 28/1/1 29/29/1
f 35/54/1 37/57/1 39/37/1 40/55/1
f 14/22/6 12/25/6 37/60/6 35/33/6
g Cube_Cube_black
usemtl black
f 18/41/1 23/82/1 29/29/1 26/18/1
f 23/82/7 18/41/7 38/56/7 40/55/7
