# Blender v2.90.1 OBJ File: ''
# www.blender.org
mtllib table1.mtl
o Cube
v 2.816213 0.209580 -5.801876
v 2.816620 -0.376439 -5.806578
v 3.088405 0.115513 5.915048
v 3.088811 -0.470506 5.910346
v -3.045888 0.155438 -5.800910
v -3.045482 -0.430580 -5.805612
v -2.773697 0.061371 5.916016
v -2.773291 -0.524647 5.911313
v 2.563050 -0.378781 -5.806536
v 2.834835 0.113171 5.915090
v 2.835241 -0.472848 5.910388
v 2.562643 0.207238 -5.801835
v -2.787688 -0.428199 -5.805654
v -2.515902 0.063752 5.915973
v -2.515495 -0.522267 5.911272
v -2.788093 0.157819 -5.800952
v -2.790242 -0.518789 5.181612
v 3.071454 0.121371 5.185349
v -2.790648 0.067229 5.186315
v 3.071860 -0.464648 5.180645
v 2.818290 -0.466989 5.180688
v 2.817883 0.119029 5.185390
v -2.532447 -0.516408 5.181570
v -2.532853 0.069610 5.186272
v -3.029545 0.149790 -5.097370
v 2.832963 -0.382087 -5.103040
v -3.029139 -0.436229 -5.102072
v 2.832557 0.203932 -5.098338
v 2.579393 -0.384429 -5.102997
v 2.578986 0.201590 -5.098296
v -2.771344 -0.433847 -5.102115
v -2.771749 0.152171 -5.097413
v -2.808437 -0.512501 4.398399
v 3.053258 0.127659 4.402134
v 2.800095 -0.460701 4.397474
v 2.799688 0.125317 4.402176
v -2.550642 -0.510121 4.398356
v -2.551048 0.075898 4.403059
v -2.808844 0.073517 4.403101
v 3.053665 -0.458360 4.397433
v -3.011135 0.143428 -4.304900
v 2.851373 -0.388449 -4.310568
v -3.010729 -0.442591 -4.309602
v 2.850966 0.197570 -4.305867
v 2.597803 -0.390791 -4.310526
v 2.597396 0.195228 -4.305826
v -2.752934 -0.440210 -4.309644
v -2.753340 0.145809 -4.304943
v -2.238816 -0.519711 5.911226
v -2.511414 0.160374 -5.800998
v -2.511008 -0.425644 -5.805699
v -2.239222 0.066307 5.915927
v -2.256174 0.072166 5.186226
v -2.255768 -0.513853 5.181525
v -2.494664 -0.431292 -5.102160
v -2.495070 0.154726 -5.097458
v -2.273963 -0.507565 4.398312
v -2.274369 0.078454 4.403013
v -2.476661 0.148364 -4.304988
v -2.476255 -0.437655 -4.309690
v 2.555740 -0.475429 5.910435
v 2.283143 0.204657 -5.801789
v 2.538383 0.116448 5.185436
v 2.299486 0.199008 -5.098250
v 2.520188 0.122736 4.402223
v 2.317896 0.192646 -4.305779
v 2.283550 -0.381362 -5.806490
v 2.555334 0.110590 5.915136
v 2.538789 -0.469571 5.180735
v 2.299893 -0.387010 -5.102952
v 2.520595 -0.463283 4.397521
v 2.318303 -0.393372 -4.310480
v -2.771749 0.152171 -5.097413
v -2.753340 0.145809 -4.304943
v -2.495070 0.154726 -5.097458
v -2.476661 0.148364 -4.304988
v -2.775755 5.929624 -5.051059
v -2.757345 5.923261 -4.258589
v -2.499075 5.932178 -5.051105
v -2.480666 5.925817 -4.258635
v -2.536858 5.847062 5.232625
v -2.555053 5.853350 4.449412
v -2.260180 5.849618 5.232579
v -2.278374 5.855906 4.449367
v 2.574981 5.979040 -5.051942
v 2.593391 5.972679 -4.259472
v 2.295481 5.976460 -5.051897
v 2.313891 5.970098 -4.259426
v 2.813878 5.896481 5.231743
v 2.795683 5.902768 4.448530
v 2.534378 5.893900 5.231790
v 2.516183 5.900188 4.448576
v 2.555740 -0.475429 5.910435
v 2.283143 0.204657 -5.801789
v 2.538383 0.116448 5.185436
v 2.299486 0.199008 -5.098250
v 2.520188 0.122736 4.402223
v 2.317896 0.192646 -4.305779
v 2.283550 -0.381362 -5.806490
v 2.555334 0.110590 5.915136
v 2.538789 -0.469571 5.180735
v 2.299893 -0.387010 -5.102952
v 2.520595 -0.463283 4.397521
v 2.318303 -0.393372 -4.310480
v 2.295481 5.976460 -5.051897
v 2.313891 5.970098 -4.259426
v 2.534378 5.893900 5.231790
v 2.516183 5.900188 4.448576
vt 0.864006 0.734431
vt 0.875000 0.734431
vt 0.875000 0.750000
vt 0.864006 0.750000
vt 0.375000 0.989006
vt 0.625000 0.989006
vt 0.625000 1.000000
vt 0.375000 1.000000
vt 0.375000 0.234989
vt 0.625000 0.234989
vt 0.625000 0.250000
vt 0.375000 0.250000
vt 0.364186 0.734431
vt 0.375000 0.734431
vt 0.375000 0.750000
vt 0.364186 0.750000
vt 0.625000 0.734431
vt 0.625000 0.750000
vt 0.375000 0.489186
vt 0.625000 0.489186
vt 0.625000 0.500000
vt 0.375000 0.500000
vt 0.375000 0.477266
vt 0.625000 0.477266
vt 0.352266 0.734431
vt 0.352266 0.750000
vt 0.625000 0.760814
vt 0.375000 0.760814
vt 0.635814 0.734431
vt 0.635814 0.750000
vt 0.125000 0.734431
vt 0.135994 0.734431
vt 0.135994 0.750000
vt 0.125000 0.750000
vt 0.625000 0.260994
vt 0.375000 0.260994
vt 0.375000 0.977206
vt 0.625000 0.977206
vt 0.852206 0.734431
vt 0.852206 0.750000
vt 0.852206 0.717720
vt 0.852206 0.717720
vt 0.852206 0.734431
vt 0.125000 0.717719
vt 0.135994 0.717720
vt 0.625000 0.717719
vt 0.635814 0.717719
vt 0.352266 0.717720
vt 0.364186 0.717720
vt 0.375000 0.717719
vt 0.375000 0.000000
vt 0.625000 0.000000
vt 0.625000 0.015569
vt 0.375000 0.015569
vt 0.864006 0.717720
vt 0.875000 0.717719
vt 0.864006 0.500000
vt 0.875000 0.500000
vt 0.875000 0.515011
vt 0.864006 0.515011
vt 0.364186 0.500000
vt 0.375000 0.515011
vt 0.364186 0.515011
vt 0.625000 0.515011
vt 0.352266 0.500000
vt 0.352266 0.515011
vt 0.635814 0.500000
vt 0.635814 0.515011
vt 0.125000 0.500000
vt 0.135994 0.500000
vt 0.135994 0.515011
vt 0.125000 0.515011
vt 0.852206 0.500000
vt 0.852206 0.515011
vt 0.375000 0.218080
vt 0.625000 0.218080
vt 0.625000 0.032281
vt 0.375000 0.032281
vt 0.864006 0.531920
vt 0.875000 0.531920
vt 0.364186 0.531920
vt 0.375000 0.531920
vt 0.625000 0.531920
vt 0.352266 0.531920
vt 0.635814 0.531920
vt 0.125000 0.531920
vt 0.135994 0.531920
vt 0.852206 0.531920
vt 0.852206 0.531920
vt 0.864006 0.531920
vt 0.147794 0.515011
vt 0.147794 0.531920
vt 0.647734 0.515011
vt 0.647734 0.531920
vt 0.647734 0.717719
vt 0.147794 0.717720
vt 0.647734 0.500000
vt 0.147794 0.500000
vt 0.147794 0.734431
vt 0.647734 0.734431
vt 0.647734 0.750000
vt 0.375000 0.772734
vt 0.625000 0.772734
vt 0.147794 0.750000
vt 0.625000 0.272794
vt 0.375000 0.272794
vt 0.375000 0.772734
vt 0.625000 0.772734
vt 0.647734 0.734431
vt 0.647734 0.750000
vt 0.635814 0.734431
vt 0.647734 0.734431
vt 0.647734 0.500000
vt 0.647734 0.515011
vt 0.647734 0.531920
vt 0.647734 0.717720
vt 0.635814 0.531920
vt 0.647734 0.531920
vt 0.352266 0.515011
vt 0.352266 0.531920
vt 0.352266 0.500000
vt 0.352266 0.717720
vt 0.352266 0.734431
vt 0.352266 0.750000
vt 0.625000 0.477266
vt 0.375000 0.477266
vt 0.852206 0.531920
vt 0.864006 0.531920
vt 0.864006 0.515011
vt 0.852206 0.515011
vt 0.852206 0.515011
vt 0.864006 0.515011
vt 0.864006 0.717720
vt 0.864006 0.734431
vt 0.647734 0.515011
vt 0.647734 0.515011
vt 0.647734 0.531920
vt 0.635814 0.515011
vt 0.647734 0.717720
vt 0.647734 0.717719
vt 0.647734 0.734431
vt 0.635814 0.717719
vn -0.0092 0.9999 0.0082
vn 0.0002 -0.0080 1.0000
vn -0.9997 -0.0009 0.0232
vn 0.0092 -0.9999 -0.0082
vn 0.9997 0.0009 -0.0232
vn -0.0002 0.0080 -1.0000
vn 0.0000 0.0000 1.0000
g Cube_Cube_Material
usemtl Material
s off
f 24/1/1 19/2/1 7/3/1 14/4/1
f 15/5/2 14/6/2 7/7/2 8/8/2
f 27/9/3 25/10/3 5/11/3 6/12/3
f 21/13/4 20/14/4 4/15/4 11/16/4
f 20/14/5 18/17/5 3/18/5 4/15/5
f 9/19/6 12/20/6 1/21/6 2/22/6
f 99/23/6 94/24/6 12/20/6 9/19/6
f 101/25/4 21/13/4 11/16/4 93/26/4
f 4/15/2 3/18/2 10/27/2 11/28/2
f 18/17/1 22/29/1 10/30/1 3/18/1
f 17/31/4 23/32/4 15/33/4 8/34/4
f 6/12/6 5/11/6 16/35/6 13/36/6
f 49/37/2 52/38/2 14/6/2 15/5/2
f 53/39/1 24/1/1 14/4/1 52/40/1
f 53/39/5 58/41/5 84/42/5 83/43/5
f 33/44/4 37/45/4 23/32/4 17/31/4
f 34/46/1 36/47/1 22/29/1 18/17/1
f 103/48/4 35/49/4 21/13/4 101/25/4
f 40/50/5 34/46/5 18/17/5 20/14/5
f 35/49/4 40/50/4 20/14/4 21/13/4
f 8/51/3 7/52/3 19/53/3 17/54/3
f 38/55/1 39/56/1 19/2/1 24/1/1
f 16/57/1 5/58/1 25/59/1 32/60/1
f 9/61/4 2/22/4 26/62/4 29/63/4
f 2/22/5 1/21/5 28/64/5 26/62/5
f 99/65/4 9/61/4 29/63/4 102/66/4
f 1/21/1 12/67/1 30/68/1 28/64/1
f 6/69/4 13/70/4 31/71/4 27/72/4
f 50/73/1 16/57/1 32/60/1 56/74/1
f 43/75/3 41/76/3 25/10/3 27/9/3
f 17/54/3 19/53/3 39/77/3 33/78/3
f 48/79/1 41/80/1 39/56/1 38/55/1
f 45/81/4 42/82/4 40/50/4 35/49/4
f 42/82/5 44/83/5 34/46/5 40/50/5
f 104/84/4 45/81/4 35/49/4 103/48/4
f 44/83/1 46/85/1 36/47/1 34/46/1
f 43/86/4 47/87/4 37/45/4 33/44/4
f 59/88/1 48/79/1 38/55/1 58/41/1
f 48/79/7 59/88/7 76/89/7 74/90/7
f 27/72/4 31/71/4 47/87/4 43/86/4
f 28/64/1 30/68/1 46/85/1 44/83/1
f 102/66/4 29/63/4 45/81/4 104/84/4
f 26/62/5 28/64/5 44/83/5 42/82/5
f 29/63/4 26/62/4 42/82/4 45/81/4
f 32/60/1 25/59/1 41/80/1 48/79/1
f 33/78/3 39/77/3 41/76/3 43/75/3
f 31/71/4 55/91/4 60/92/4 47/87/4
f 64/93/1 56/74/1 59/88/1 66/94/1
f 66/94/1 59/88/1 58/41/1 65/95/1
f 47/87/4 60/92/4 57/96/4 37/45/4
f 62/97/1 50/73/1 56/74/1 64/93/1
f 13/70/4 51/98/4 55/91/4 31/71/4
f 37/45/4 57/96/4 54/99/4 23/32/4
f 65/95/1 58/41/1 53/39/1 63/100/1
f 63/100/1 53/39/1 52/40/1 68/101/1
f 61/102/2 68/103/2 52/38/2 49/37/2
f 23/32/4 54/99/4 49/104/4 15/33/4
f 13/36/6 16/35/6 50/105/6 51/106/6
f 93/107/7 100/108/7 68/103/7 61/102/7
f 95/109/7 63/100/7 68/101/7 100/110/7
f 95/109/2 22/29/2 89/111/2 107/112/2
f 94/113/7 62/97/7 64/93/7 96/114/7
f 98/115/7 66/94/7 65/95/7 97/116/7
f 98/115/2 46/85/2 86/117/2 106/118/2
f 55/91/4 70/119/4 72/120/4 60/92/4
f 51/98/4 67/121/4 70/119/4 55/91/4
f 57/96/4 71/122/4 69/123/4 54/99/4
f 54/99/4 69/123/4 61/124/4 49/104/4
f 51/106/6 50/105/6 62/125/6 67/126/6
f 74/90/2 76/89/2 80/127/2 78/128/2
f 32/60/7 48/79/7 74/90/7 73/129/7
f 59/88/7 56/74/7 75/130/7 76/89/7
f 56/74/7 32/60/7 73/129/7 75/130/7
f 79/131/1 77/132/1 78/128/1 80/127/1
f 73/129/3 74/90/3 78/128/3 77/132/3
f 76/89/5 75/130/5 79/131/5 80/127/5
f 75/130/6 73/129/6 77/132/6 79/131/6
f 84/42/1 82/133/1 81/134/1 83/43/1
f 24/1/2 53/39/2 83/43/2 81/134/2
f 38/55/3 24/1/3 81/134/3 82/133/3
f 58/41/6 38/55/6 82/133/6 84/42/6
f 105/135/7 87/136/7 88/137/7 106/118/7
f 96/114/7 64/93/7 87/136/7 105/135/7
f 64/93/3 66/94/3 88/137/3 87/136/3
f 46/85/5 30/68/5 85/138/5 86/117/5
f 108/139/7 92/140/7 91/141/7 107/112/7
f 22/29/5 36/47/5 90/142/5 89/111/5
f 97/116/7 65/95/7 92/140/7 108/139/7
f 65/95/3 63/100/3 91/141/3 92/140/3
f 36/47/6 97/116/6 108/139/6 90/142/6
f 90/142/1 108/139/1 107/112/1 89/111/1
f 30/68/6 96/114/6 105/135/6 85/138/6
f 85/138/1 105/135/1 106/118/1 86/117/1
f 66/94/7 98/115/7 106/118/7 88/137/7
f 46/85/1 98/115/1 97/116/1 36/47/1
f 12/67/1 94/113/1 96/114/1 30/68/1
f 63/100/7 95/109/7 107/112/7 91/141/7
f 22/29/1 95/109/1 100/110/1 10/30/1
f 11/28/2 10/27/2 100/108/2 93/107/2
f 70/119/7 102/66/7 104/84/7 72/120/7
f 72/120/7 104/84/7 103/48/7 71/122/7
f 67/121/7 99/65/7 102/66/7 70/119/7
f 71/122/7 103/48/7 101/25/7 69/123/7
f 69/123/7 101/25/7 93/26/7 61/124/7
f 67/126/7 62/125/7 94/24/7 99/23/7
g Cube_Cube_center
usemtl center
f 60/92/4 72/120/4 71/122/4 57/96/4
